<svg width="29" height="33" viewBox="0 0 29 33" fill="none" xmlns="http://www.w3.org/2000/svg">
<path d="M23.8509 26.2697L22.4282 25.4498V22.6012C22.4282 22.521 22.3963 22.4441 22.3395 22.3874C22.2827 22.3307 22.2056 22.2989 22.1253 22.2989C22.0449 22.2989 21.9679 22.3307 21.911 22.3874C21.8542 22.4441 21.8223 22.521 21.8223 22.6012V25.6245C21.8223 25.6776 21.8363 25.7297 21.8629 25.7757C21.8895 25.8216 21.9277 25.8598 21.9738 25.8863L23.5479 26.7933C23.5823 26.8134 23.6203 26.8265 23.6597 26.8318C23.6992 26.8371 23.7393 26.8345 23.7777 26.8242C23.8162 26.8139 23.8522 26.7961 23.8837 26.7718C23.9152 26.7475 23.9415 26.7172 23.9612 26.6827C24.0014 26.6133 24.0124 26.5308 23.9917 26.4534C23.971 26.376 23.9204 26.3099 23.8509 26.2697ZM22.1253 19.5779C18.7788 19.5779 16.0662 22.285 16.0662 25.6245C16.0662 28.9641 18.7788 31.6712 22.1253 31.6712C25.4699 31.6675 28.1807 28.9623 28.1844 25.6245C28.1844 22.285 25.4717 19.5779 22.1253 19.5779ZM22.1253 31.0665C21.4091 31.0665 20.7 30.9257 20.0384 30.6522C19.3768 30.3788 18.7757 29.9779 18.2693 29.4726C17.7629 28.9672 17.3612 28.3673 17.0872 27.7071C16.8131 27.0468 16.6721 26.3392 16.6721 25.6245C16.6721 24.9099 16.8131 24.2022 17.0872 23.542C17.3612 22.8817 17.7629 22.2818 18.2693 21.7765C18.7757 21.2711 19.3768 20.8703 20.0384 20.5968C20.7 20.3233 21.4091 20.1825 22.1253 20.1825C23.571 20.1841 24.9572 20.758 25.9795 21.7782C27.0018 22.7984 27.5769 24.1817 27.5785 25.6245C27.5785 27.0678 27.0039 28.452 25.9813 29.4726C24.9586 30.4931 23.5715 31.0665 22.1253 31.0665Z" fill="#888888" stroke="#A1A3AB"/>
<path d="M15.8909 2.39129H13.5073V1.59419C13.506 1.17178 13.3382 0.767019 13.0404 0.468322C12.7427 0.169626 12.3392 0.00126159 11.9182 0H5.56182C5.14075 0.00126159 4.73729 0.169626 4.43955 0.468322C4.14181 0.767019 3.97398 1.17178 3.97273 1.59419V2.39129H1.58909C1.16802 2.39255 0.764563 2.56092 0.466823 2.85961C0.169083 3.15831 0.00125755 3.56307 0 3.98549V20.7245C0.00125755 21.1469 0.169083 21.5517 0.466823 21.8504C0.764563 22.1491 1.16802 22.3175 1.58909 22.3187H8.74V20.7245H1.58909V3.98549H3.97273V6.37678H13.5073V3.98549H15.8909V12.7536H17.48V3.98549C17.4787 3.56307 17.3109 3.15831 17.0132 2.85961C16.7154 2.56092 16.312 2.39255 15.8909 2.39129ZM11.9182 4.78258H5.56182V1.59419H11.9182V4.78258Z" fill="#A1A3AB"/>
</svg>
